<?xml version="1.0" encoding="utf-8"?>
<!-- Generator: Adobe Illustrator 27.2.0, SVG Export Plug-In . SVG Version: 6.00 Build 0)  -->
<svg version="1.1" id="Слой_1" xmlns="http://www.w3.org/2000/svg" xmlns:xlink="http://www.w3.org/1999/xlink" x="0px" y="0px"
	 viewBox="0 0 700 150" style="enable-background:new 0 0 700 150;" xml:space="preserve">
<style type="text/css">
	.st0{fill-rule:evenodd;clip-rule:evenodd;fill:#22C99D;}
	.st1{fill:#FFFFFF;}
	.st2{fill:url(#SVGID_1_);}
	.st3{fill:url(#SVGID_00000105408467988220105350000001804254110352823438_);}
	.st4{fill:url(#SVGID_00000123414232230561855550000017436513865472348071_);}
	.st5{fill:url(#SVGID_00000080916879873370011610000004139272223654106755_);}
	.st6{fill:url(#SVGID_00000143579246293980487170000014672559880600545973_);}
	.st7{fill:url(#SVGID_00000055689967534413321250000009863611414690722204_);}
	.st8{fill:url(#SVGID_00000066479499811685793320000014812470013444735893_);}
	.st9{fill:url(#SVGID_00000157278320621024360820000018350799117808918686_);}
	.st10{fill:url(#SVGID_00000047760225252710262120000008235478294968698027_);}
	.st11{fill:url(#SVGID_00000143577843674625305850000004655085890912778630_);}
	.st12{fill:url(#SVGID_00000005961746809260521280000006882943544496192409_);}
	.st13{fill:url(#SVGID_00000131330162626957127140000009116182263987631502_);}
	.st14{display:none;}
	.st15{display:inline;}
	.st16{fill:url(#SVGID_00000001637210026031899010000008377078226017847456_);}
	.st17{fill:url(#SVGID_00000081622965911748565670000001180949203632072326_);}
	.st18{fill:url(#SVGID_00000030473552065344754950000003358536931987084734_);}
	.st19{fill:url(#SVGID_00000178165336752764983090000010001713986779471766_);}
	.st20{fill:url(#SVGID_00000039098603671077417670000001539471624398067353_);}
	.st21{fill:url(#SVGID_00000167387426106846344910000011965574665033032619_);}
	.st22{fill:url(#SVGID_00000061444468678078620110000000438018085427980984_);}
	.st23{fill:url(#SVGID_00000160157274396373616390000001666176425402842777_);}
	.st24{fill:url(#SVGID_00000065766057358562389720000002156075693453751946_);}
	.st25{fill:url(#SVGID_00000145057486265841603100000015299115772905508014_);}
	.st26{fill:url(#SVGID_00000100373130873912146680000007100802442248527508_);}
	.st27{fill:url(#SVGID_00000047756305561876043310000006038959192921754286_);}
	.st28{fill:url(#SVGID_00000030488290174431543560000004794371057877522853_);}
	.st29{fill:url(#SVGID_00000035513720830623568810000012960181694037366433_);}
	.st30{fill:url(#SVGID_00000050638987878275715690000016634317096239681704_);}
	.st31{fill:url(#SVGID_00000173871415167039842090000007461676010681343108_);}
	.st32{fill:url(#SVGID_00000148651612084653151020000008032800173186205334_);}
	.st33{fill:url(#SVGID_00000085241050884919883860000005968614017185360566_);}
	.st34{fill:url(#SVGID_00000113320366722779403230000010077224215735280031_);}
	.st35{fill:url(#SVGID_00000064332905399510620400000017445082137434389412_);}
	.st36{fill:url(#SVGID_00000001628177967229551490000018109525525178915491_);}
	.st37{fill:url(#SVGID_00000013170137649345939480000013816450423204015024_);}
	.st38{fill:url(#SVGID_00000031916695615904133220000006338525876547403414_);}
	.st39{fill:url(#SVGID_00000097464512102425819980000008941260708861729698_);}
</style>
<g>
	<g>
		<path class="st0" d="M25.9,39.4h-15l9,17.7h-8.1l4.3,11h9.4l3.9,7.5h-9.4l5.1,11h10.3l12.4,24l11.6-24l9.4-0.4l6-11h-9.4l3.4-7.1
			h9l5.6-11.4h-9l8.6-17.3H67.4L47.3,81.1L25.9,39.4z"/>
		<path class="st1" d="M126.2,59.5h7.9L121,93h-8.4l-13-33.4h7.9l9.4,25.4L126.2,59.5z"/>
		<path class="st1" d="M163.8,59.5h7.2V93h-7.2v-4.8c-2.7,3.8-6.6,5.7-11.7,5.7c-4.6,0-8.5-1.7-11.8-5.1c-3.3-3.4-4.9-7.6-4.9-12.5
			c0-4.9,1.6-9.1,4.9-12.5c3.3-3.4,7.2-5.1,11.8-5.1c5.1,0,9,1.9,11.7,5.6V59.5z M145.7,83.9c2,2,4.5,3,7.6,3c3,0,5.6-1,7.6-3
			c2-2.1,3-4.6,3-7.7c0-3.1-1-5.6-3-7.6c-2-2.1-4.5-3.1-7.6-3.1c-3,0-5.6,1-7.6,3.1c-2,2-3,4.5-3,7.6
			C142.7,79.3,143.7,81.9,145.7,83.9z"/>
		<path class="st1" d="M202.2,59.5h7.9L197,93h-8.4l-13-33.4h7.9l9.4,25.4L202.2,59.5z"/>
		<path class="st1" d="M219,79.3c0.5,2.5,1.8,4.5,3.7,5.9c1.9,1.3,4.3,2,7,2c3.8,0,6.7-1.4,8.6-4.1l6,3.5c-3.3,4.9-8.2,7.3-14.7,7.3
			c-5.4,0-9.8-1.6-13.2-4.9c-3.3-3.3-5-7.6-5-12.6c0-5,1.7-9.2,5-12.5c3.3-3.4,7.5-5.1,12.7-5.1c4.9,0,8.9,1.7,12,5.1
			c3.2,3.4,4.8,7.6,4.8,12.5c0,0.8-0.1,1.8-0.3,3H219z M219,73.4h19.7c-0.5-2.7-1.6-4.8-3.4-6.2c-1.7-1.4-3.8-2.1-6.2-2.1
			c-2.7,0-4.9,0.7-6.7,2.2C220.6,68.9,219.4,70.9,219,73.4z"/>
	</g>
	<g>
		<linearGradient id="SVGID_1_" gradientUnits="userSpaceOnUse" x1="287.5816" y1="55.7734" x2="287.5816" y2="103.7314">
			<stop  offset="0" style="stop-color:#808080"/>
			<stop  offset="0.5004" style="stop-color:#E6E6E6"/>
			<stop  offset="1" style="stop-color:#808080"/>
		</linearGradient>
		<path class="st2" d="M272.1,77c0-2.4,0.4-4.7,1.3-6.8c0.9-2.1,2-4,3.6-5.6c1.5-1.6,3.4-2.8,5.5-3.7c2.2-0.9,4.5-1.4,7-1.4
			c2.9,0,5.4,0.4,7.5,1.3c2.1,0.9,4,2.2,5.8,3.9l-3.8,4.4c-1.5-1.4-3-2.4-4.5-3.1c-1.5-0.7-3.2-1.1-5-1.1c-2.1,0-4,0.5-5.7,1.6
			c-1.7,1.1-3,2.5-4,4.4c-1,1.8-1.4,3.9-1.4,6.1c0,3.4,1.1,6.2,3.2,8.5c2.1,2.3,4.8,3.5,8,3.5c1.9,0,3.7-0.4,5.1-1.1
			c1.5-0.7,3-1.8,4.6-3.3l3.8,3.9c-1.3,1.3-2.5,2.4-3.7,3.2c-1.2,0.8-2.7,1.5-4.4,2c-1.7,0.5-3.6,0.8-5.6,0.8
			c-3.2,0-6.1-0.8-8.8-2.3c-2.6-1.5-4.7-3.6-6.2-6.3C272.9,83.1,272.1,80.2,272.1,77z"/>
		
			<linearGradient id="SVGID_00000125574956824613543110000008754463572226939277_" gradientUnits="userSpaceOnUse" x1="323.5373" y1="55.7734" x2="323.5373" y2="103.7314">
			<stop  offset="0" style="stop-color:#808080"/>
			<stop  offset="0.5004" style="stop-color:#E6E6E6"/>
			<stop  offset="1" style="stop-color:#808080"/>
		</linearGradient>
		<path style="fill:url(#SVGID_00000125574956824613543110000008754463572226939277_);" d="M309.2,93.8V60.1h15.1c3.9,0,7,1,9.2,2.9
			c2.2,1.9,3.3,4.6,3.3,7.8c0,2.7-0.7,4.9-2.2,6.6c-1.5,1.7-3.4,2.9-5.9,3.6l9.1,12.8h-7l-8.4-11.8h-7.3v11.8H309.2z M315.1,76.8
			h8.7c2.1,0,3.8-0.5,5.1-1.6c1.3-1,1.9-2.4,1.9-4.2c0-1.8-0.6-3.2-1.8-4.1c-1.2-1-2.9-1.4-5.2-1.4h-8.6V76.8z"/>
		
			<linearGradient id="SVGID_00000052070232180839075620000017925990212343711380_" gradientUnits="userSpaceOnUse" x1="356.9729" y1="55.7734" x2="356.9729" y2="103.7314">
			<stop  offset="0" style="stop-color:#808080"/>
			<stop  offset="0.5004" style="stop-color:#E6E6E6"/>
			<stop  offset="1" style="stop-color:#808080"/>
		</linearGradient>
		<path style="fill:url(#SVGID_00000052070232180839075620000017925990212343711380_);" d="M340.6,60.1h7l9.4,15l9.5-15h6.8
			l-13.4,20.3v13.4H354V80.5L340.6,60.1z"/>
		
			<linearGradient id="SVGID_00000086691479147161032590000015570763018161702291_" gradientUnits="userSpaceOnUse" x1="391.6685" y1="55.7734" x2="391.6685" y2="103.7314">
			<stop  offset="0" style="stop-color:#808080"/>
			<stop  offset="0.5004" style="stop-color:#E6E6E6"/>
			<stop  offset="1" style="stop-color:#808080"/>
		</linearGradient>
		<path style="fill:url(#SVGID_00000086691479147161032590000015570763018161702291_);" d="M378.6,93.8V60.1h13.4
			c3.9,0,7.1,1,9.4,3.1c2.3,2.1,3.5,4.8,3.5,8.3c0,2.5-0.6,4.6-1.9,6.4c-1.2,1.8-2.9,3.1-4.9,3.9c-2,0.9-4.3,1.3-6.8,1.3h-6.7v10.8
			H378.6z M384.5,77.6h6.9c2.2,0,4-0.6,5.3-1.7c1.3-1.1,2-2.6,2-4.4c0-1.9-0.6-3.4-1.9-4.5c-1.3-1-3.1-1.6-5.3-1.6h-6.9V77.6z"/>
		
			<linearGradient id="SVGID_00000132077658899063630600000013357391616484375991_" gradientUnits="userSpaceOnUse" x1="422.0551" y1="55.7734" x2="422.0551" y2="103.7314">
			<stop  offset="0" style="stop-color:#808080"/>
			<stop  offset="0.5004" style="stop-color:#E6E6E6"/>
			<stop  offset="1" style="stop-color:#808080"/>
		</linearGradient>
		<path style="fill:url(#SVGID_00000132077658899063630600000013357391616484375991_);" d="M408.3,65.6v-5.5h27.4v5.5H425v28.3h-5.9
			V65.6H408.3z"/>
		
			<linearGradient id="SVGID_00000124877531853989825930000008695601900069959088_" gradientUnits="userSpaceOnUse" x1="458.1988" y1="55.7734" x2="458.1988" y2="103.7314">
			<stop  offset="0" style="stop-color:#808080"/>
			<stop  offset="0.5004" style="stop-color:#E6E6E6"/>
			<stop  offset="1" style="stop-color:#808080"/>
		</linearGradient>
		<path style="fill:url(#SVGID_00000124877531853989825930000008695601900069959088_);" d="M440.6,77c0-2.4,0.4-4.6,1.3-6.7
			c0.9-2.1,2.1-4,3.6-5.6c1.5-1.6,3.4-2.8,5.6-3.8c2.2-0.9,4.6-1.4,7.1-1.4c2.5,0,4.9,0.5,7.1,1.4c2.2,0.9,4.1,2.2,5.6,3.7
			c1.5,1.6,2.7,3.4,3.6,5.6c0.9,2.1,1.3,4.4,1.3,6.8c0,2.4-0.4,4.6-1.3,6.7c-0.9,2.1-2.1,4-3.6,5.6c-1.5,1.6-3.4,2.8-5.6,3.8
			c-2.2,0.9-4.6,1.4-7.1,1.4c-3.4,0-6.4-0.8-9.1-2.4c-2.7-1.6-4.8-3.7-6.3-6.3C441.3,83.1,440.6,80.1,440.6,77z M446.8,77
			c0,2.2,0.5,4.2,1.4,6c1,1.8,2.3,3.3,4.1,4.4c1.8,1.1,3.7,1.6,5.9,1.6c2.2,0,4.1-0.5,5.9-1.6c1.8-1.1,3.1-2.5,4.1-4.4
			c1-1.8,1.4-3.8,1.4-6.1c0-2.2-0.5-4.2-1.5-6c-1-1.8-2.3-3.3-4.1-4.4c-1.8-1.1-3.7-1.6-5.9-1.6c-2.2,0-4.1,0.5-5.9,1.6
			c-1.8,1.1-3.1,2.5-4,4.4C447.2,72.7,446.8,74.7,446.8,77z"/>
		
			<linearGradient id="SVGID_00000084525865412688723100000009570306659178216874_" gradientUnits="userSpaceOnUse" x1="511.4136" y1="55.7734" x2="511.4136" y2="103.7314">
			<stop  offset="0" style="stop-color:#808080"/>
			<stop  offset="0.5004" style="stop-color:#E6E6E6"/>
			<stop  offset="1" style="stop-color:#808080"/>
		</linearGradient>
		<path style="fill:url(#SVGID_00000084525865412688723100000009570306659178216874_);" d="M496,77c0-2.4,0.4-4.7,1.3-6.8
			c0.9-2.1,2-4,3.6-5.6c1.5-1.6,3.4-2.8,5.5-3.7c2.2-0.9,4.5-1.4,7-1.4c2.9,0,5.4,0.4,7.5,1.3c2.1,0.9,4,2.2,5.8,3.9l-3.8,4.4
			c-1.5-1.4-3-2.4-4.5-3.1c-1.5-0.7-3.2-1.1-5-1.1c-2.1,0-4,0.5-5.7,1.6c-1.7,1.1-3,2.5-4,4.4c-1,1.8-1.4,3.9-1.4,6.1
			c0,3.4,1.1,6.2,3.2,8.5c2.1,2.3,4.8,3.5,8,3.5c1.9,0,3.7-0.4,5.1-1.1c1.5-0.7,3-1.8,4.6-3.3l3.8,3.9c-1.3,1.3-2.5,2.4-3.7,3.2
			c-1.2,0.8-2.7,1.5-4.4,2c-1.7,0.5-3.6,0.8-5.6,0.8c-3.2,0-6.1-0.8-8.8-2.3c-2.6-1.5-4.7-3.6-6.2-6.3C496.7,83.1,496,80.2,496,77z"
			/>
		
			<linearGradient id="SVGID_00000008864081944884301260000010899121161609905827_" gradientUnits="userSpaceOnUse" x1="547.7457" y1="55.7734" x2="547.7457" y2="103.7314">
			<stop  offset="0" style="stop-color:#808080"/>
			<stop  offset="0.5004" style="stop-color:#E6E6E6"/>
			<stop  offset="1" style="stop-color:#808080"/>
		</linearGradient>
		<path style="fill:url(#SVGID_00000008864081944884301260000010899121161609905827_);" d="M530.1,93.8l14.9-34h5.5l14.8,34h-6.3
			l-3.4-8.1h-16l-3.5,8.1H530.1z M541.9,80.4h11.6l-5.8-13.5L541.9,80.4z"/>
		
			<linearGradient id="SVGID_00000157293786047330126510000010036073000762248104_" gradientUnits="userSpaceOnUse" x1="581.9233" y1="55.7734" x2="581.9233" y2="103.7314">
			<stop  offset="0" style="stop-color:#808080"/>
			<stop  offset="0.5004" style="stop-color:#E6E6E6"/>
			<stop  offset="1" style="stop-color:#808080"/>
		</linearGradient>
		<path style="fill:url(#SVGID_00000157293786047330126510000010036073000762248104_);" d="M568.9,88.9l3.6-4.2
			c1.7,1.5,3.4,2.6,5.1,3.3c1.7,0.7,3.6,1.1,5.6,1.1c1.8,0,3.3-0.4,4.4-1.2c1.1-0.8,1.6-1.8,1.6-3.2c0-0.8-0.2-1.6-0.6-2.1
			c-0.4-0.6-1.1-1.1-2.2-1.6c-1.1-0.5-2.7-1-4.8-1.5c-1.9-0.5-3.6-0.9-4.8-1.4c-1.3-0.5-2.4-1.1-3.4-1.9c-1-0.8-1.8-1.7-2.3-2.8
			c-0.5-1.1-0.7-2.4-0.7-4c0-2.9,1.1-5.2,3.2-7.1c2.2-1.8,4.9-2.7,8.3-2.7c4.7,0,8.7,1.4,12.2,4.2l-3.2,4.5
			c-3.1-2.3-6.2-3.5-9.2-3.5c-1.7,0-3,0.4-4,1.2c-1,0.8-1.5,1.8-1.5,2.9c0,0.9,0.2,1.6,0.7,2.2c0.4,0.6,1.2,1.1,2.4,1.6
			c1.1,0.5,2.8,1,5,1.5c3.8,0.9,6.5,2.1,8.2,3.6c1.7,1.5,2.6,3.6,2.6,6.3c0,3.1-1.1,5.6-3.3,7.4c-2.2,1.8-5.1,2.7-8.7,2.7
			C577.6,94.3,572.9,92.5,568.9,88.9z"/>
		
			<linearGradient id="SVGID_00000063605810725551921540000013045777923811860401_" gradientUnits="userSpaceOnUse" x1="605.2813" y1="55.7734" x2="605.2813" y2="103.7314">
			<stop  offset="0" style="stop-color:#808080"/>
			<stop  offset="0.5004" style="stop-color:#E6E6E6"/>
			<stop  offset="1" style="stop-color:#808080"/>
		</linearGradient>
		<path style="fill:url(#SVGID_00000063605810725551921540000013045777923811860401_);" d="M602.3,93.8V60.1h5.9v33.8H602.3z"/>
		
			<linearGradient id="SVGID_00000021115821035354923940000018063908837432141482_" gradientUnits="userSpaceOnUse" x1="631.9594" y1="55.7734" x2="631.9594" y2="103.7314">
			<stop  offset="0" style="stop-color:#808080"/>
			<stop  offset="0.5004" style="stop-color:#E6E6E6"/>
			<stop  offset="1" style="stop-color:#808080"/>
		</linearGradient>
		<path style="fill:url(#SVGID_00000021115821035354923940000018063908837432141482_);" d="M617.2,93.8V60.1h5.5l18.1,23.4V60.1h5.8
			v33.8h-5l-18.6-24v24H617.2z"/>
		
			<linearGradient id="SVGID_00000093140031540244304990000001130613302952730522_" gradientUnits="userSpaceOnUse" x1="671.482" y1="55.7734" x2="671.482" y2="103.7314">
			<stop  offset="0" style="stop-color:#808080"/>
			<stop  offset="0.5004" style="stop-color:#E6E6E6"/>
			<stop  offset="1" style="stop-color:#808080"/>
		</linearGradient>
		<path style="fill:url(#SVGID_00000093140031540244304990000001130613302952730522_);" d="M653.8,77c0-2.4,0.4-4.6,1.3-6.7
			c0.9-2.1,2.1-4,3.6-5.6c1.5-1.6,3.4-2.8,5.6-3.8c2.2-0.9,4.6-1.4,7.1-1.4c2.5,0,4.9,0.5,7.1,1.4c2.2,0.9,4.1,2.2,5.6,3.7
			c1.5,1.6,2.7,3.4,3.6,5.6c0.9,2.1,1.3,4.4,1.3,6.8c0,2.4-0.4,4.6-1.3,6.7c-0.9,2.1-2.1,4-3.6,5.6c-1.5,1.6-3.4,2.8-5.6,3.8
			c-2.2,0.9-4.6,1.4-7.1,1.4c-3.4,0-6.4-0.8-9.1-2.4c-2.7-1.6-4.8-3.7-6.3-6.3C654.6,83.1,653.8,80.1,653.8,77z M660.1,77
			c0,2.2,0.5,4.2,1.4,6c1,1.8,2.3,3.3,4.1,4.4c1.8,1.1,3.7,1.6,5.9,1.6c2.2,0,4.1-0.5,5.9-1.6c1.8-1.1,3.1-2.5,4.1-4.4
			c1-1.8,1.4-3.8,1.4-6.1c0-2.2-0.5-4.2-1.5-6c-1-1.8-2.3-3.3-4.1-4.4c-1.8-1.1-3.7-1.6-5.9-1.6c-2.2,0-4.1,0.5-5.9,1.6
			c-1.8,1.1-3.1,2.5-4,4.4C660.5,72.7,660.1,74.7,660.1,77z"/>
	</g>
</g>
<g class="st14">
	<g class="st15">
		<path class="st0" d="M24.1,39.4h-15l9,17.7H10l4.3,11h9.4l3.9,7.5h-9.4l5.1,11h10.3l12.4,24l11.6-24l9.4-0.4l6-11h-9.4l3.4-7.1h9
			l5.6-11.4h-9l8.6-17.3H65.7L45.5,81.1L24.1,39.4z"/>
		<path class="st1" d="M124.4,59.5h7.9l-13,33.4h-8.4l-13-33.4h7.9l9.4,25.4L124.4,59.5z"/>
		<path class="st1" d="M162.1,59.5h7.2V93h-7.2v-4.8c-2.7,3.8-6.6,5.7-11.7,5.7c-4.6,0-8.5-1.7-11.8-5.1c-3.3-3.4-4.9-7.6-4.9-12.5
			c0-4.9,1.6-9.1,4.9-12.5c3.3-3.4,7.2-5.1,11.8-5.1c5.1,0,9,1.9,11.7,5.6V59.5z M144,83.9c2,2,4.5,3,7.6,3c3,0,5.6-1,7.6-3
			c2-2.1,3-4.6,3-7.7c0-3.1-1-5.6-3-7.6c-2-2.1-4.5-3.1-7.6-3.1c-3,0-5.6,1-7.6,3.1c-2,2-3,4.5-3,7.6C141,79.3,142,81.9,144,83.9z"
			/>
		<path class="st1" d="M200.4,59.5h7.9l-13,33.4h-8.4l-13-33.4h7.9l9.4,25.4L200.4,59.5z"/>
		<path class="st1" d="M217.3,79.3c0.5,2.5,1.8,4.5,3.7,5.9c1.9,1.3,4.3,2,7,2c3.8,0,6.7-1.4,8.6-4.1l6,3.5
			c-3.3,4.9-8.2,7.3-14.7,7.3c-5.4,0-9.8-1.6-13.2-4.9c-3.3-3.3-5-7.6-5-12.6c0-5,1.7-9.2,5-12.5c3.3-3.4,7.5-5.1,12.7-5.1
			c4.9,0,8.9,1.7,12,5.1c3.2,3.4,4.8,7.6,4.8,12.5c0,0.8-0.1,1.8-0.3,3H217.3z M217.2,73.4h19.7c-0.5-2.7-1.6-4.8-3.4-6.2
			c-1.7-1.4-3.8-2.1-6.2-2.1c-2.7,0-4.9,0.7-6.7,2.2C218.8,68.9,217.7,70.9,217.2,73.4z"/>
	</g>
	<g class="st15">
		
			<linearGradient id="SVGID_00000143595910512147851310000003526244610575447732_" gradientUnits="userSpaceOnUse" x1="284.6644" y1="54.5582" x2="284.6644" y2="102.1059">
			<stop  offset="0" style="stop-color:#808080"/>
			<stop  offset="0.5004" style="stop-color:#E6E6E6"/>
			<stop  offset="1" style="stop-color:#808080"/>
		</linearGradient>
		<path style="fill:url(#SVGID_00000143595910512147851310000003526244610575447732_);" d="M285.3,59.1c7.2,0,15,3.8,16.3,12.8
			c-3,0-5.7,0-8.7,0c-1.2-3.4-3.9-5-7.6-5c-5.2,0-8.6,3.8-8.6,9.4c0,5,3.4,9.3,8.6,9.3c3.8,0,6.8-1.8,7.7-5.4c3,0,5.7,0,8.7,0
			c-1.3,9.5-9.1,13.3-16.4,13.3c-8.8,0-17.7-5.7-17.8-17.2C267.6,64.9,276.5,59.1,285.3,59.1z"/>
		
			<linearGradient id="SVGID_00000123439699064495725230000017455956568226078606_" gradientUnits="userSpaceOnUse" x1="323.1685" y1="54.5582" x2="323.1685" y2="102.1059">
			<stop  offset="0" style="stop-color:#808080"/>
			<stop  offset="0.5004" style="stop-color:#E6E6E6"/>
			<stop  offset="1" style="stop-color:#808080"/>
		</linearGradient>
		<path style="fill:url(#SVGID_00000123439699064495725230000017455956568226078606_);" d="M337.8,91.9v1.3h-9.9l-5.9-9.9h-4.6v9.9
			c-3,0-6,0-8.9,0c0-11.2,0-22.4,0-33.7c5,0,10.2,0,15.2,0c13.6,0,16.1,16,7.3,21.7L337.8,91.9z M323.7,67.2c-2.1,0-4.3,0-6.3,0
			c0,2.7,0,5.7,0,8.4h6.3C328.5,75.6,328.8,67.3,323.7,67.2z"/>
		
			<linearGradient id="SVGID_00000008147165787004758050000006734044036617272730_" gradientUnits="userSpaceOnUse" x1="355.2589" y1="54.5582" x2="355.2589" y2="102.1059">
			<stop  offset="0" style="stop-color:#808080"/>
			<stop  offset="0.5004" style="stop-color:#E6E6E6"/>
			<stop  offset="1" style="stop-color:#808080"/>
		</linearGradient>
		<path style="fill:url(#SVGID_00000008147165787004758050000006734044036617272730_);" d="M359.6,93.2h-8.8V79l-11.6-18.2v-1.3h9.6
			l6.3,11.2h0.3l6.3-11.2h9.6v1.3L359.6,79V93.2z"/>
		
			<linearGradient id="SVGID_00000085965977328573053380000013057986650968127409_" gradientUnits="userSpaceOnUse" x1="389.956" y1="54.5582" x2="389.956" y2="102.1059">
			<stop  offset="0" style="stop-color:#808080"/>
			<stop  offset="0.5004" style="stop-color:#E6E6E6"/>
			<stop  offset="1" style="stop-color:#808080"/>
		</linearGradient>
		<path style="fill:url(#SVGID_00000085965977328573053380000013057986650968127409_);" d="M376.1,93.2c0-11.2,0-22.4,0-33.7
			c5,0,10.2,0,15.3,0c16.6,0,16.6,25.1,0,25.1H385v8.6C382,93.2,379,93.2,376.1,93.2z M391.3,67.2c-2.1,0-4.3,0-6.3,0
			c0,2.7,0,6.9,0,9.6h6.3C396.2,76.8,396.5,67.3,391.3,67.2z"/>
		
			<linearGradient id="SVGID_00000105426766634597720780000002176544826512940213_" gradientUnits="userSpaceOnUse" x1="419.9354" y1="54.5582" x2="419.9354" y2="102.1059">
			<stop  offset="0" style="stop-color:#808080"/>
			<stop  offset="0.5004" style="stop-color:#E6E6E6"/>
			<stop  offset="1" style="stop-color:#808080"/>
		</linearGradient>
		<path style="fill:url(#SVGID_00000105426766634597720780000002176544826512940213_);" d="M407.1,67.2c0-2.6,0-5.1,0-7.7h25.8
			c0,2.5,0,5.1,0,7.7h-8.5v26c-2.9,0-5.8,0-8.8,0v-26H407.1z"/>
		
			<linearGradient id="SVGID_00000109729366672837198490000003249025072445202825_" gradientUnits="userSpaceOnUse" x1="453.9575" y1="54.5582" x2="453.9575" y2="102.1059">
			<stop  offset="0" style="stop-color:#808080"/>
			<stop  offset="0.5004" style="stop-color:#E6E6E6"/>
			<stop  offset="1" style="stop-color:#808080"/>
		</linearGradient>
		<path style="fill:url(#SVGID_00000109729366672837198490000003249025072445202825_);" d="M436.2,76.4c0-23.3,35.6-23.3,35.6,0
			C471.7,99.7,436.2,99.7,436.2,76.4z M462.7,76.4c0-12.1-17.4-12.1-17.4,0C445.3,88.6,462.7,88.6,462.7,76.4z"/>
		
			<linearGradient id="SVGID_00000060713208264458962520000002391749249697959552_" gradientUnits="userSpaceOnUse" x1="507.0705" y1="54.5582" x2="507.0705" y2="102.1059">
			<stop  offset="0" style="stop-color:#808080"/>
			<stop  offset="0.5004" style="stop-color:#E6E6E6"/>
			<stop  offset="1" style="stop-color:#808080"/>
		</linearGradient>
		<path style="fill:url(#SVGID_00000060713208264458962520000002391749249697959552_);" d="M507.7,59.1c7.2,0,15,3.8,16.3,12.8
			c-3,0-5.7,0-8.7,0c-1.2-3.4-3.9-5-7.6-5c-5.2,0-8.6,3.8-8.6,9.4c0,5,3.4,9.3,8.6,9.3c3.8,0,6.8-1.8,7.7-5.4c3,0,5.7,0,8.7,0
			c-1.3,9.5-9.1,13.3-16.4,13.3c-8.8,0-17.7-5.7-17.8-17.2C490,64.9,498.9,59.1,507.7,59.1z"/>
		
			<linearGradient id="SVGID_00000174569094470580421190000012322773017768341676_" gradientUnits="userSpaceOnUse" x1="544.1384" y1="54.5582" x2="544.1384" y2="102.1059">
			<stop  offset="0" style="stop-color:#808080"/>
			<stop  offset="0.5004" style="stop-color:#E6E6E6"/>
			<stop  offset="1" style="stop-color:#808080"/>
		</linearGradient>
		<path style="fill:url(#SVGID_00000174569094470580421190000012322773017768341676_);" d="M551,88.9h-13.7l-2,4.2h-8.7v-1.3
			l15.6-32.8h3.8l15.6,32.8v1.3H553L551,88.9z M544.1,72.7l-3.9,8.8h7.9L544.1,72.7z"/>
		
			<linearGradient id="SVGID_00000076602966032962045500000000522338066301802374_" gradientUnits="userSpaceOnUse" x1="577.8135" y1="54.5582" x2="577.8135" y2="102.1059">
			<stop  offset="0" style="stop-color:#808080"/>
			<stop  offset="0.5004" style="stop-color:#E6E6E6"/>
			<stop  offset="1" style="stop-color:#808080"/>
		</linearGradient>
		<path style="fill:url(#SVGID_00000076602966032962045500000000522338066301802374_);" d="M583.2,83.3c0-2.4-2.9-2.9-6.3-3.1
			c-7.5-0.5-12.5-3-12.6-10.3c-0.3-14.5,26.6-14.5,26.4,0c-3.1,0-5.4,0-8.4,0c0-4.5-9.3-4.1-9.6-0.1c-0.2,2.5,2.4,3.1,5.5,3.4
			c6.9,0.7,13.6,1.7,13.6,10.1c0,14.1-28.2,14.4-28-0.4c3,0,5.5,0,8.6,0C572.4,87.2,583.2,87.2,583.2,83.3z"/>
		
			<linearGradient id="SVGID_00000011744084508934485850000018220146369555146917_" gradientUnits="userSpaceOnUse" x1="604.2346" y1="54.5582" x2="604.2346" y2="102.1059">
			<stop  offset="0" style="stop-color:#808080"/>
			<stop  offset="0.5004" style="stop-color:#E6E6E6"/>
			<stop  offset="1" style="stop-color:#808080"/>
		</linearGradient>
		<path style="fill:url(#SVGID_00000011744084508934485850000018220146369555146917_);" d="M613,85.6v7.6h-17.6v-7.6h4.4V67h-4.1
			v-7.5h16.9V67h-4.1v18.6H613z"/>
		
			<linearGradient id="SVGID_00000134958197028094319580000010267214099905813933_" gradientUnits="userSpaceOnUse" x1="633.7241" y1="54.5582" x2="633.7241" y2="102.1059">
			<stop  offset="0" style="stop-color:#808080"/>
			<stop  offset="0.5004" style="stop-color:#E6E6E6"/>
			<stop  offset="1" style="stop-color:#808080"/>
		</linearGradient>
		<path style="fill:url(#SVGID_00000134958197028094319580000010267214099905813933_);" d="M628,76.6v16.5c-3.1,0-6.1,0-9.2,0V59.4
			h3.2L639.6,76V59.5c3,0,6,0,9.1,0v33.7h-3.2L628,76.6z"/>
		
			<linearGradient id="SVGID_00000016043419812652146260000010508151110573927065_" gradientUnits="userSpaceOnUse" x1="673.0951" y1="54.5582" x2="673.0951" y2="102.1059">
			<stop  offset="0" style="stop-color:#808080"/>
			<stop  offset="0.5004" style="stop-color:#E6E6E6"/>
			<stop  offset="1" style="stop-color:#808080"/>
		</linearGradient>
		<path style="fill:url(#SVGID_00000016043419812652146260000010508151110573927065_);" d="M655.3,76.4c0-23.3,35.6-23.3,35.6,0
			C690.9,99.7,655.3,99.7,655.3,76.4z M681.8,76.4c0-12.1-17.4-12.1-17.4,0C664.4,88.6,681.8,88.6,681.8,76.4z"/>
	</g>
</g>
<g class="st14">
	<g class="st15">
		<path class="st0" d="M36.1,39.4h-15l9,17.7h-8.1l4.3,11h9.4l3.9,7.5h-9.4l5.1,11h10.3l12.4,24l11.6-24l9.4-0.4l6-11h-9.4l3.4-7.1
			h9l5.6-11.4h-9l8.6-17.3H77.6L57.5,81.1L36.1,39.4z"/>
		<path class="st1" d="M136.4,59.5h7.9l-13,33.4h-8.4l-13-33.4h7.9l9.4,25.4L136.4,59.5z"/>
		<path class="st1" d="M174.1,59.5h7.2V93h-7.2v-4.8c-2.7,3.8-6.6,5.7-11.7,5.7c-4.6,0-8.5-1.7-11.8-5.1c-3.3-3.4-4.9-7.6-4.9-12.5
			c0-4.9,1.6-9.1,4.9-12.5c3.3-3.4,7.2-5.1,11.8-5.1c5.1,0,9,1.9,11.7,5.6V59.5z M155.9,83.9c2,2,4.5,3,7.6,3c3,0,5.6-1,7.6-3
			c2-2.1,3-4.6,3-7.7c0-3.1-1-5.6-3-7.6c-2-2.1-4.5-3.1-7.6-3.1c-3,0-5.6,1-7.6,3.1c-2,2-3,4.5-3,7.6
			C152.9,79.3,153.9,81.9,155.9,83.9z"/>
		<path class="st1" d="M212.4,59.5h7.9l-13,33.4h-8.4l-13-33.4h7.9l9.4,25.4L212.4,59.5z"/>
		<path class="st1" d="M229.2,79.3c0.5,2.5,1.8,4.5,3.7,5.9c1.9,1.3,4.3,2,7,2c3.8,0,6.7-1.4,8.6-4.1l6,3.5
			c-3.3,4.9-8.2,7.3-14.7,7.3c-5.4,0-9.8-1.6-13.2-4.9c-3.3-3.3-5-7.6-5-12.6c0-5,1.7-9.2,5-12.5c3.3-3.4,7.5-5.1,12.7-5.1
			c4.9,0,8.9,1.7,12,5.1c3.2,3.4,4.8,7.6,4.8,12.5c0,0.8-0.1,1.8-0.3,3H229.2z M229.2,73.4h19.7c-0.5-2.7-1.6-4.8-3.4-6.2
			c-1.7-1.4-3.8-2.1-6.2-2.1c-2.7,0-4.9,0.7-6.7,2.2C230.8,68.9,229.7,70.9,229.2,73.4z"/>
	</g>
	<g class="st15">
		
			<linearGradient id="SVGID_00000014613919706945098200000007424195103721495940_" gradientUnits="userSpaceOnUse" x1="295.5437" y1="58.7168" x2="297.3367" y2="93.8588">
			<stop  offset="0" style="stop-color:#808080"/>
			<stop  offset="0.3938" style="stop-color:#FFFFFF"/>
			<stop  offset="1" style="stop-color:#808080"/>
		</linearGradient>
		<path style="fill:url(#SVGID_00000014613919706945098200000007424195103721495940_);" d="M297.3,58.7c6.8,0,12.9,2.9,14.9,9.9
			h-2.6c-1.8-5.7-7.2-7.8-12.4-7.8c-9.4,0-14.4,6.6-14.4,15.5c0,9.4,5,15.4,14.4,15.4c5.6,0,10.6-2.1,12.5-8.5h2.6
			c-1.7,7.3-8.4,10.7-15.1,10.7c-10.7,0-17.1-6.7-17.1-17.6C280.3,65.8,287,58.7,297.3,58.7z"/>
		
			<linearGradient id="SVGID_00000084487905060089768420000015713864623546980008_" gradientUnits="userSpaceOnUse" x1="330.7115" y1="58.566" x2="332.5198" y2="94.0087">
			<stop  offset="0" style="stop-color:#808080"/>
			<stop  offset="0.3938" style="stop-color:#FFFFFF"/>
			<stop  offset="1" style="stop-color:#808080"/>
		</linearGradient>
		<path style="fill:url(#SVGID_00000084487905060089768420000015713864623546980008_);" d="M342.4,93.3l-10.2-13h-10.1v13h-2.7V59.1
			h13.1c6.7,0,11.4,4.1,11.4,10.7c0,5.7-3.8,9.4-9,10.2l10.6,13.2v0.1H342.4z M332.5,78.2c4.8,0,8.8-2.9,8.8-8.5
			c0-5.7-3.8-8.5-8.8-8.5H322v16.9H332.5z"/>
		
			<linearGradient id="SVGID_00000045614147819512845560000000391990366974227117_" gradientUnits="userSpaceOnUse" x1="361.2187" y1="58.4385" x2="362.9987" y2="93.3268">
			<stop  offset="0" style="stop-color:#808080"/>
			<stop  offset="0.3938" style="stop-color:#FFFFFF"/>
			<stop  offset="1" style="stop-color:#808080"/>
		</linearGradient>
		<path style="fill:url(#SVGID_00000045614147819512845560000000391990366974227117_);" d="M372.2,59.1h2.9v0.3l-12.4,19.6v14.2
			h-2.7V79.1l-12.5-19.7v-0.3h2.9l5.4,8.7l5.5,9h0.1l5.5-9L372.2,59.1z"/>
		
			<linearGradient id="SVGID_00000141443767150941360100000001575121459514668966_" gradientUnits="userSpaceOnUse" x1="393.0526" y1="58.5635" x2="394.7999" y2="92.8103">
			<stop  offset="0" style="stop-color:#808080"/>
			<stop  offset="0.3938" style="stop-color:#FFFFFF"/>
			<stop  offset="1" style="stop-color:#808080"/>
		</linearGradient>
		<path style="fill:url(#SVGID_00000141443767150941360100000001575121459514668966_);" d="M394.8,59.1c6.9,0,11.9,3.9,11.9,11.3
			c0,7-5,11.3-11.9,11.3h-10.5v11.6h-2.6V59.1H394.8z M394.8,79.5c5.1,0,9.2-2.8,9.2-9.1s-4-9.1-9.2-9.1h-10.5v18.2H394.8z"/>
		
			<linearGradient id="SVGID_00000098179558668190017300000000472563513129998473_" gradientUnits="userSpaceOnUse" x1="421.5862" y1="58.5163" x2="423.3622" y2="93.3263">
			<stop  offset="0" style="stop-color:#808080"/>
			<stop  offset="0.3938" style="stop-color:#FFFFFF"/>
			<stop  offset="1" style="stop-color:#808080"/>
		</linearGradient>
		<path style="fill:url(#SVGID_00000098179558668190017300000000472563513129998473_);" d="M434,59.1v2.1h-11v32.1h-2.7V61.2h-11
			v-2.1H434z"/>
		
			<linearGradient id="SVGID_00000134243049146874989060000016602740301045373618_" gradientUnits="userSpaceOnUse" x1="452.006" y1="58.6685" x2="453.7992" y2="93.8145">
			<stop  offset="0" style="stop-color:#808080"/>
			<stop  offset="0.3938" style="stop-color:#FFFFFF"/>
			<stop  offset="1" style="stop-color:#808080"/>
		</linearGradient>
		<path style="fill:url(#SVGID_00000134243049146874989060000016602740301045373618_);" d="M452.8,93.8c-9.8,0-17.1-6.4-17.1-17.6
			s7.5-17.6,17.1-17.6c9.9,0,17.2,6.4,17.2,17.6C470.1,87.3,463,93.8,452.8,93.8z M452.8,91.6c8.4,0,14.5-5.4,14.5-15.3
			c0-9.8-6-15.3-14.5-15.3c-8.4,0-14.5,5.8-14.5,15.3C438.4,85.9,444.5,91.6,452.8,91.6z"/>
		
			<linearGradient id="SVGID_00000071542123393255697840000009568637238528808323_" gradientUnits="userSpaceOnUse" x1="503.413" y1="58.7168" x2="505.2059" y2="93.8588">
			<stop  offset="0" style="stop-color:#808080"/>
			<stop  offset="0.3938" style="stop-color:#FFFFFF"/>
			<stop  offset="1" style="stop-color:#808080"/>
		</linearGradient>
		<path style="fill:url(#SVGID_00000071542123393255697840000009568637238528808323_);" d="M505.2,58.7c6.8,0,12.9,2.9,14.9,9.9
			h-2.6c-1.8-5.7-7.2-7.8-12.4-7.8c-9.4,0-14.4,6.6-14.4,15.5c0,9.4,5,15.4,14.4,15.4c5.6,0,10.6-2.1,12.5-8.5h2.6
			c-1.7,7.3-8.4,10.7-15.1,10.7c-10.7,0-17.1-6.7-17.1-17.6C488.2,65.8,494.9,58.7,505.2,58.7z"/>
		
			<linearGradient id="SVGID_00000078003851807719858520000015248295074915620257_" gradientUnits="userSpaceOnUse" x1="537.358" y1="59.1068" x2="539.1474" y2="94.1797">
			<stop  offset="0" style="stop-color:#808080"/>
			<stop  offset="0.3938" style="stop-color:#FFFFFF"/>
			<stop  offset="1" style="stop-color:#808080"/>
		</linearGradient>
		<path style="fill:url(#SVGID_00000078003851807719858520000015248295074915620257_);" d="M522.7,93.3v-0.3l15.9-34h1.2l15.7,34
			v0.3h-2.8l-4.5-9.9H530l-4.5,9.9H522.7z M539.2,63.1l-8.2,18.2h16.4L539.2,63.1z"/>
		
			<linearGradient id="SVGID_00000172435776045238197510000005465497238443957908_" gradientUnits="userSpaceOnUse" x1="570.2327" y1="58.6826" x2="572.0271" y2="93.8533">
			<stop  offset="0" style="stop-color:#808080"/>
			<stop  offset="0.3938" style="stop-color:#FFFFFF"/>
			<stop  offset="1" style="stop-color:#808080"/>
		</linearGradient>
		<path style="fill:url(#SVGID_00000172435776045238197510000005465497238443957908_);" d="M560.8,84.4c0.3,5.8,6.5,7.3,11.1,7.3
			c4.7,0,10.3-2.1,10.4-7.5c0.1-5.8-5.5-6.6-10.7-7.4c-6.2-0.8-12.5-2.1-12.5-8.9c0-6.5,6.6-9.2,12.3-9.2c6.3,0,12.3,2.4,12.7,8.9
			h-2.6c-0.4-5.4-5.9-6.7-10-6.7c-4.6,0-9.6,1.8-9.6,7c0,5.8,5.9,6.3,10.3,6.8c6.6,0.9,13.1,2.4,12.9,9.5c-0.1,6.7-6.7,9.6-13,9.6
			c-6.2,0-13.4-2.2-13.7-9.4H560.8z"/>
		
			<linearGradient id="SVGID_00000168082377163910420140000002626181551069045428_" gradientUnits="userSpaceOnUse" x1="595.4814" y1="58.8265" x2="597.2605" y2="93.6974">
			<stop  offset="0" style="stop-color:#808080"/>
			<stop  offset="0.3938" style="stop-color:#FFFFFF"/>
			<stop  offset="1" style="stop-color:#808080"/>
		</linearGradient>
		<path style="fill:url(#SVGID_00000168082377163910420140000002626181551069045428_);" d="M588.9,93.3v-2h6.3V61.1h-5.9v-2h14.5v2
			h-6v30.2h6.3v2H588.9z"/>
		
			<linearGradient id="SVGID_00000018204218209922552920000015959106997904698519_" gradientUnits="userSpaceOnUse" x1="622.9305" y1="58.4627" x2="624.7424" y2="93.9745">
			<stop  offset="0" style="stop-color:#808080"/>
			<stop  offset="0.3938" style="stop-color:#FFFFFF"/>
			<stop  offset="1" style="stop-color:#808080"/>
		</linearGradient>
		<path style="fill:url(#SVGID_00000018204218209922552920000015959106997904698519_);" d="M613.2,93.3h-2.6V59.1h1l23.1,28.7
			l-0.2-12.3V59.1h2.6v34.3h-0.9L613,64.7l0.2,11.5V93.3z"/>
		
			<linearGradient id="SVGID_00000052083235408247867380000013495724402155087243_" gradientUnits="userSpaceOnUse" x1="660.8459" y1="58.6685" x2="662.639" y2="93.8145">
			<stop  offset="0" style="stop-color:#808080"/>
			<stop  offset="0.3938" style="stop-color:#FFFFFF"/>
			<stop  offset="1" style="stop-color:#808080"/>
		</linearGradient>
		<path style="fill:url(#SVGID_00000052083235408247867380000013495724402155087243_);" d="M661.7,93.8c-9.8,0-17.1-6.4-17.1-17.6
			s7.5-17.6,17.1-17.6c9.9,0,17.2,6.4,17.2,17.6C678.9,87.3,671.8,93.8,661.7,93.8z M661.7,91.6c8.4,0,14.5-5.4,14.5-15.3
			c0-9.8-6-15.3-14.5-15.3c-8.4,0-14.5,5.8-14.5,15.3C647.3,85.9,653.4,91.6,661.7,91.6z"/>
	</g>
</g>
</svg>
