<svg width="32" height="32" viewBox="0 0 32 32" fill="none" xmlns="http://www.w3.org/2000/svg">
<rect width="32" height="32" rx="6" fill="#313333"/>
<path d="M16.0336 17.3849L22.2298 23.5795C22.4251 23.7747 22.7416 23.7747 22.9369 23.5795L23.6463 22.8702C23.8416 22.675 23.8416 22.3583 23.6463 22.163L17.4502 15.9687L23.5836 9.83696C23.779 9.64169 23.779 9.32503 23.5836 9.12976L22.8742 8.42051C22.6789 8.22531 22.3624 8.22531 22.1672 8.42051L16.0336 14.5524L9.83281 8.35341C9.63756 8.15821 9.32105 8.15821 9.1258 8.35341L8.41635 9.06265C8.22102 9.25793 8.22102 9.57459 8.41635 9.76986L14.6169 15.9687L8.3537 22.2301C8.15837 22.4254 8.15837 22.7421 8.3537 22.9373L9.06315 23.6466C9.2584 23.8418 9.57491 23.8418 9.77016 23.6466L16.0336 17.3849Z" fill="white" fill-opacity="0.5"/>
</svg>
